<svg width="102" height="42" viewBox="0 0 102 42" fill="none" xmlns="http://www.w3.org/2000/svg">
<path d="M59.152 20.9923C59.152 24.8843 56.1356 28.0393 52.4149 28.0393C48.6941 28.0393 45.6777 24.8843 45.6777 20.9923C45.6777 17.1004 48.6941 13.9453 52.4149 13.9453C56.1356 13.9453 59.152 17.1004 59.152 20.9923Z" stroke="#FF7373" stroke-width="2"/>
<path d="M52.4145 24.5157C54.2748 24.5157 55.783 22.9382 55.783 20.9922C55.783 19.0463 54.2748 17.4688 52.4145 17.4688C50.5541 17.4688 49.0459 19.0463 49.0459 20.9922C49.0459 22.9382 50.5541 24.5157 52.4145 24.5157Z" fill="#FF7373"/>
<path d="M68.343 25.2628H72.7086V27.546H65.6104V15.2251H68.343V25.2628ZM76.986 27.546H74.2373V15.2251H76.986V27.546ZM80.6133 15.2251C80.7319 15.2251 80.8316 15.2307 80.9124 15.242C80.9933 15.2533 81.066 15.2758 81.1307 15.3097C81.1954 15.3378 81.2574 15.3801 81.3167 15.4365C81.376 15.4929 81.4433 15.569 81.5188 15.6648L87.1133 23.0642C87.0917 22.8274 87.0756 22.5991 87.0648 22.3792C87.054 22.1537 87.0486 21.9423 87.0486 21.745V15.2251H89.4578V27.546H88.0349C87.8247 27.546 87.6469 27.5122 87.5013 27.4446C87.3558 27.3769 87.2157 27.2529 87.0809 27.0725L81.5269 19.7323C81.543 19.9466 81.5565 20.158 81.5673 20.3666C81.5781 20.5695 81.5835 20.7612 81.5835 20.9416V27.546H79.1743V15.2251H80.6133ZM94.128 20.2144H94.5645C94.9688 20.2144 95.2598 20.0819 95.4377 19.8169L98.0894 15.7917C98.2349 15.5718 98.3993 15.4224 98.5826 15.3435C98.7712 15.2646 99.0003 15.2251 99.2697 15.2251H101.647L98.1541 20.2059C98.0301 20.3863 97.9008 20.5357 97.766 20.6541C97.6313 20.7725 97.4938 20.8711 97.3537 20.9501C97.5585 21.029 97.7445 21.1389 97.9115 21.2799C98.084 21.4152 98.2403 21.5984 98.3804 21.8295L101.938 27.546H99.4961C99.3398 27.546 99.2051 27.5348 99.0919 27.5122C98.9841 27.4897 98.8898 27.4558 98.8089 27.4107C98.7281 27.3656 98.658 27.3121 98.5987 27.2501C98.5394 27.1824 98.4828 27.1063 98.4289 27.0217L95.7611 22.7344C95.664 22.5765 95.5401 22.4666 95.3892 22.4046C95.2436 22.3369 95.0442 22.3031 94.7909 22.3031H94.128V27.546H91.3954V15.2251H94.128V20.2144Z" fill="#545C6E"/>
<path d="M3.7189 25.2624H8.08455V27.5456H0.986328V15.2247H3.7189V25.2624ZM16.9542 15.2247V17.4233H12.1196V20.2985H15.8223V22.4126H12.1196V25.3469H16.9542V27.5456H9.37086V15.2247H16.9542ZM27.0668 15.2247V17.491H23.7521V27.5456H21.0195V17.491H17.7049V15.2247H27.0668ZM39.3288 21.3809C39.3288 22.2716 39.1806 23.1004 38.8842 23.8671C38.5931 24.6338 38.1808 25.3018 37.6472 25.8712C37.1137 26.435 36.4696 26.8775 35.715 27.1989C34.9659 27.5202 34.1332 27.6809 33.2169 27.6809C32.3007 27.6809 31.4653 27.5202 30.7107 27.1989C29.9561 26.8775 29.3094 26.435 28.7704 25.8712C28.2368 25.3018 27.8218 24.6338 27.5254 23.8671C27.2343 23.1004 27.0888 22.2716 27.0888 21.3809C27.0888 20.4902 27.2343 19.6614 27.5254 18.8947C27.8218 18.128 28.2368 17.4628 28.7704 16.899C29.3094 16.3353 29.9561 15.8927 30.7107 15.5714C31.4653 15.25 32.3007 15.0894 33.2169 15.0894C34.1332 15.0894 34.9659 15.2528 35.715 15.5798C36.4696 15.9012 37.1137 16.3437 37.6472 16.9075C38.1808 17.4712 38.5931 18.1365 38.8842 18.9032C39.1806 19.6699 39.3288 20.4958 39.3288 21.3809ZM36.5316 21.3809C36.5316 20.772 36.4561 20.2252 36.3052 19.7404C36.1543 19.2499 35.936 18.8355 35.6503 18.4973C35.3701 18.159 35.0251 17.8997 34.6155 17.7193C34.2059 17.5389 33.7397 17.4487 33.2169 17.4487C32.6887 17.4487 32.2171 17.5389 31.8021 17.7193C31.3925 17.8997 31.0449 18.159 30.7592 18.4973C30.4789 18.8355 30.2633 19.2499 30.1124 19.7404C29.9615 20.2252 29.8861 20.772 29.8861 21.3809C29.8861 21.9954 29.9615 22.5479 30.1124 23.0383C30.2633 23.5232 30.4789 23.9347 30.7592 24.273C31.0449 24.6112 31.3925 24.8706 31.8021 25.051C32.2171 25.2257 32.6887 25.3131 33.2169 25.3131C33.7397 25.3131 34.2059 25.2257 34.6155 25.051C35.0251 24.8706 35.3701 24.6112 35.6503 24.273C35.936 23.9347 36.1543 23.5232 36.3052 23.0383C36.4561 22.5479 36.5316 21.9954 36.5316 21.3809Z" fill="#545C6E"/>
<path d="M44.0822 35.601L41.8867 33.9664L45.0123 29.3735L47.2078 31.0082L44.0822 35.601Z" fill="#FF7373"/>
<path d="M40.6556 38.2331C39.14 37.1047 38.7859 34.9047 39.8648 33.3193C40.9436 31.734 43.0469 31.3636 44.5626 32.4921C46.0781 33.6206 46.4322 35.8206 45.3534 37.4059C44.2745 38.9913 42.1712 39.3616 40.6556 38.2331Z" fill="#FF7373"/>
<path d="M62.9158 33.9213L60.727 35.5656L57.583 30.9866L59.7719 29.3423L62.9158 33.9213Z" fill="#FF7373"/>
<path d="M65.367 39.8813C63.8559 41.0164 61.7512 40.6553 60.666 39.0747C59.5807 37.4941 59.926 35.2926 61.437 34.1574C62.9482 33.0223 65.0529 33.3834 66.1381 34.964C67.2234 36.5446 66.8781 38.7462 65.367 39.8813Z" fill="#FF7373"/>
<path d="M60.73 6.45361L62.9255 8.08824L59.7999 12.6811L57.6045 11.0464L60.73 6.45361Z" fill="#FF7373"/>
<path d="M64.1563 3.82171C65.6719 4.9502 66.026 7.15016 64.9471 8.73552C63.8682 10.3209 61.765 10.6912 60.2494 9.56277C58.7337 8.43426 58.3796 6.23425 59.4585 4.64891C60.5374 3.06357 62.6407 2.69322 64.1563 3.82171Z" fill="#FF7373"/>
<path d="M41.8838 8.06857L44.0727 6.42432L47.2166 11.0034L45.0277 12.6476L41.8838 8.06857Z" fill="#FF7373"/>
<path d="M39.4322 2.10813C40.9432 0.972997 43.048 1.33411 44.1332 2.91471C45.2184 4.4953 44.8732 6.69683 43.3621 7.83196C41.851 8.96708 39.7463 8.606 38.661 7.02539C37.5758 5.44479 37.9211 3.24327 39.4322 2.10813Z" fill="#FF7373"/>
</svg>
