<svg width="32" height="32" viewBox="0 0 32 32" fill="none" xmlns="http://www.w3.org/2000/svg">
<circle cx="16" cy="16" r="16" fill="#4397FA"/>
<path d="M10 21.25V19.75H11.5V14.5C11.5 13.4625 11.8125 12.5408 12.4375 11.7348C13.0625 10.9288 13.875 10.4005 14.875 10.15V9.625C14.875 9.3125 14.9845 9.047 15.2035 8.8285C15.4225 8.61 15.688 8.5005 16 8.5C16.312 8.4995 16.5777 8.609 16.7972 8.8285C17.0167 9.048 17.126 9.3135 17.125 9.625V10.15C18.125 10.4 18.9375 10.9283 19.5625 11.7348C20.1875 12.5413 20.5 13.463 20.5 14.5V19.75H22V21.25H10ZM16 23.5C15.5875 23.5 15.2345 23.3533 14.941 23.0598C14.6475 22.7663 14.5005 22.413 14.5 22H17.5C17.5 22.4125 17.3533 22.7658 17.0598 23.0598C16.7663 23.3538 16.413 23.5005 16 23.5ZM13 19.75H19V14.5C19 13.675 18.7063 12.9688 18.1187 12.3813C17.5312 11.7938 16.825 11.5 16 11.5C15.175 11.5 14.4688 11.7938 13.8813 12.3813C13.2938 12.9688 13 13.675 13 14.5V19.75Z" fill="#F3FCFF"/>
<circle cx="28" cy="4" r="4" fill="#FF1C1C"/>
</svg>
